<svg xmlns="http://www.w3.org/2000/svg" width="100.766" height="34.795" viewBox="0 0 100.766 34.795">
  <g id="Group_27" data-name="Group 27" transform="translate(0)">
    <g id="Group_24" data-name="Group 24" transform="translate(0 0)">
      <g id="Group_23" data-name="Group 23" transform="translate(37.766 8.884)">
        <text id="App_Store" data-name="App Store" transform="translate(0 13)" fill="#000032" font-size="13" font-family="Muli-Bold, Muli" font-weight="700"><tspan x="0" y="0">App Store</tspan></text>
      </g>
      <g id="XMLID_228_" transform="translate(0 0)">
        <path id="XMLID_229_" d="M29.343,76.86c-2.942,5.1-1.072,12.851,2.181,17.548,1.624,2.348,3.268,4.456,5.519,4.456l.129,0a6.816,6.816,0,0,0,2.562-.683,7.014,7.014,0,0,1,3.034-.719,6.6,6.6,0,0,1,2.888.7,6.119,6.119,0,0,0,2.767.663c2.536-.047,4.094-2.322,5.467-4.328a19.187,19.187,0,0,0,2.4-4.907l.01-.031a.285.285,0,0,0-.152-.35l-.021-.009a7.27,7.27,0,0,1-4.406-6.658,7.484,7.484,0,0,1,3.536-6.256l.028-.017a.285.285,0,0,0,.081-.4,8.23,8.23,0,0,0-6.473-3.515c-.184-.018-.374-.028-.565-.028a11.284,11.284,0,0,0-4.063,1.015,6.53,6.53,0,0,1-1.946.581,6.367,6.367,0,0,1-2.013-.589,9.754,9.754,0,0,0-3.548-.9h-.09A8.7,8.7,0,0,0,29.343,76.86Z" transform="translate(-27.875 -64.07)" fill="#000032"/>
        <path id="XMLID_230_" d="M156.385,0a7.945,7.945,0,0,0-5.245,2.69,7.444,7.444,0,0,0-1.884,5.519.285.285,0,0,0,.261.247c.121.009.245.014.369.014a6.72,6.72,0,0,0,4.951-2.539A7.848,7.848,0,0,0,156.68.254.287.287,0,0,0,156.385,0Z" transform="translate(-135.368 0)" fill="#000032"/>
      </g>
    </g>
  </g>
</svg>
