<svg id="Iconly_Light_Calling" data-name="Iconly/Light/Calling" xmlns="http://www.w3.org/2000/svg" width="30" height="30" viewBox="0 0 30 30">
  <g id="Calling" transform="translate(3.125 3.125)">
    <path id="Stroke_1" data-name="Stroke 1" d="M.612,2.967C1.008,2.311,3.188-.07,4.741,0A2.053,2.053,0,0,1,5.95.647h0A21.1,21.1,0,0,1,9.035,4.822C9.34,6.283,7.6,7.125,8.13,8.6a12.341,12.341,0,0,0,7.024,7.02c1.471.534,2.313-1.207,3.774-.9A21.08,21.08,0,0,1,23.1,17.8h0a2.049,2.049,0,0,1,.646,1.209c.058,1.637-2.471,3.846-2.964,4.128-1.163.833-2.681.818-4.531-.042C11.092,20.946,2.842,12.853.655,7.5-.182,5.656-.239,4.129.612,2.967Z" transform="translate(0 0)" fill="none" stroke="#360083" stroke-linecap="round" stroke-linejoin="round" stroke-miterlimit="10" stroke-width="1.5"/>
    <path id="Path" d="M0,0A9.963,9.963,0,0,1,8.8,8.79" transform="translate(15.082 0.313)" fill="none" stroke="#360083" stroke-linecap="round" stroke-linejoin="round" stroke-miterlimit="10" stroke-width="1.5"/>
    <path id="Path-2" data-name="Path" d="M0,0A5.532,5.532,0,0,1,4.372,4.372" transform="translate(15.082 4.741)" fill="none" stroke="#360083" stroke-linecap="round" stroke-linejoin="round" stroke-miterlimit="10" stroke-width="1.5"/>
  </g>
</svg>
