<svg xmlns="http://www.w3.org/2000/svg" xmlns:xlink="http://www.w3.org/1999/xlink" width="86" height="86" viewBox="0 0 86 86">
  <defs>
    <clipPath id="clip-path">
      <rect width="86" height="86" fill="none"/>
    </clipPath>
  </defs>
  <g id="Repeat_Grid_9" data-name="Repeat Grid 9" clip-path="url(#clip-path)">
    <g transform="translate(51 54.274)">
      <rect id="Rectangle_6380" data-name="Rectangle 6380" width="86" height="86" rx="6" transform="translate(-51 -54.274)" fill="#26dc69" opacity="0.16"/>
      <g id="Iconly_Bold_Calling" data-name="Iconly/Bold/Calling" transform="translate(-29 -32.274)">
        <g id="Calling" transform="translate(3.183 3.185)">
          <path id="Calling-2" data-name="Calling" d="M22.96,34.031C15.452,30.9,3.982,19.655.95,12.2-.308,9.431-.318,7.143.929,5.424c.5-.806,3.328-4.177,5.864-4.07A3.261,3.261,0,0,1,8.767,2.388c.972.954,3.722,4.44,3.934,5.462a3.908,3.908,0,0,1-.739,2.835c-.468.819-1.718,2.369-1.392,3.274A20.11,20.11,0,0,0,21.233,24.32c.885.323,2.435-.928,3.249-1.4a3.869,3.869,0,0,1,2.827-.742c1.019.216,4.493,3.037,5.446,4.013a3.247,3.247,0,0,1,1.024,1.962c.095,2.594-3.43,5.555-4.071,5.924A4.938,4.938,0,0,1,26.75,35,9.083,9.083,0,0,1,22.96,34.031Zm3-20.152v0a6.057,6.057,0,0,0-4.8-4.813,1.506,1.506,0,0,1,.572-2.956A9.056,9.056,0,0,1,28.908,13.3a1.514,1.514,0,0,1-1.186,1.769,1.653,1.653,0,0,1-.29.027A1.5,1.5,0,0,1,25.961,13.879Zm6.048-.131A12.1,12.1,0,0,0,21.288,3.007,1.511,1.511,0,0,1,20.529.321,1.431,1.431,0,0,1,21.623.014a15.079,15.079,0,0,1,13.367,13.4,1.5,1.5,0,0,1-1.323,1.663,1.234,1.234,0,0,1-.17.011A1.5,1.5,0,0,1,32.009,13.748Z" transform="translate(-0.183 -0.185)" fill="#26dc69"/>
        </g>
      </g>
    </g>
  </g>
</svg>
