<svg xmlns="http://www.w3.org/2000/svg" xmlns:xlink="http://www.w3.org/1999/xlink" width="879" height="460" viewBox="0 0 879 460">
  <defs>
    <clipPath id="clip-path">
      <rect id="Rectangle_6373" data-name="Rectangle 6373" width="879" height="460" transform="translate(960.476 325.539)" fill="#fff" stroke="#707070" stroke-width="1"/>
    </clipPath>
  </defs>
  <g id="Mask_Group_265" data-name="Mask Group 265" transform="translate(-960.476 -325.539)" clip-path="url(#clip-path)">
    <g id="Mailbox-bro_3_" data-name="Mailbox-bro (3)" transform="translate(1143.851 326.013)">
      <g id="freepik--background-simple--inject-1--inject-19" transform="translate(12.994 34.528)">
        <path id="Path_13374" data-name="Path 13374" d="M493.957,180.839c-21.155-11.583-43.193-16.233-67.243-13.256-29.625,3.657-53.023,7.967-81.369-3.073-23.833-9.272-45.6-23.112-68.331-34.587-46.5-23.588-92.653-30.889-127.512,15.635-18.544,24.757-32.629,53.186-42.35,83.177C91.435,277.123,78.519,330.7,85.6,381.237c8.959,64.062,63.9,94.135,129.62,70.928,26.579-9.381,52.234-23.112,80.581-27.042,59.317-8.239,108.207,46.225,179.339,32.983C597.746,435.32,588.691,232.706,493.957,180.839Z" transform="translate(-83.612 -111.356)" fill="#b991ff" opacity="0.14"/>
      </g>
      <g id="freepik--Clouds--inject-1--inject-19" transform="translate(81.725 0)">
        <path id="Path_13376" data-name="Path 13376" d="M466.925,135.3c-8.633-4.718-12.549-.789-15.689-4.718s8.633-14.126-14.955-24.322c0,0-1.563-21.97-33.744-22.759s-23.507,21.97-32.14,27.463-10.985-3.086-19.618,2.352-4.7,16.478-11.76,18.041-16.491-7.056-25.125-1.563-8.633,10.2-12.549,10.2-11.774-3.141-16.478,0-10.21,7.07-10.21,7.07H473.151S475.558,140,466.925,135.3Z" transform="translate(-106.752 -83.48)" fill="#7e57c2" opacity="0.15"/>
        <path id="Path_13378" data-name="Path 13378" d="M274.173,274.721c-6.064-3.3-8.823-.557-11.026-3.3s6.064-9.925-10.469-17.09c0,0-1.1-15.431-23.711-15.988s-16.532,15.431-22.6,19.292-7.709-2.2-13.772,1.659-3.317,11.57-8.266,12.671-11.583-4.962-17.674-1.1-6.064,7.165-8.81,7.165-8.28-2.2-11.583,0-7.165,4.962-7.165,4.962H278.578S280.236,278.025,274.173,274.721Z" transform="translate(-139.101 -46.527)" fill="#fff"/>
        <path id="Path_13379" data-name="Path 13379" d="M274.173,274.721c-6.064-3.3-8.823-.557-11.026-3.3s6.064-9.925-10.469-17.09c0,0-1.1-15.431-23.711-15.988s-16.532,15.431-22.6,19.292-7.709-2.2-13.772,1.659-3.317,11.57-8.266,12.671-11.583-4.962-17.674-1.1-6.064,7.165-8.81,7.165-8.28-2.2-11.583,0-7.165,4.962-7.165,4.962H278.578S280.236,278.025,274.173,274.721Z" transform="translate(-139.101 -46.527)" fill="#fff" opacity="0.5"/>
      </g>
      <g id="freepik--Plants--inject-1--inject-19" transform="translate(328.973 118.81)">
        <path id="Path_13380" data-name="Path 13380" d="M387.743,518.507h85.924c-1.645-10.509-8.4-8.66-9.3-24.948-.449-8.157,7.151-18.354,6.485-29.122-.544-8.878-9.286-17.973-9.966-28.129-.612-9.163,6.8-19.333,6.132-29.2-.693-9.327-9.517-18.286-10.346-27.993-.761-9.517,6.553-19.727,5.683-29.3s-9.884-18.368-10.876-27.8c-.993-9.694,6.091-20.135,5-29.407-1.142-9.857-10.441-18.368-11.706-27.449-1.36-10.1,5.18-20.9,3.644-29.625-1.89-10.686-11.842-18.422-13.935-26.307-3.9-14.7-3.412-28.85-8.021-29.774-4.908-.979-6.036,12.9-9.762,28.415-1.876,7.79-11.6,15.689-13.2,26.389-1.292,8.66,5.588,19.2,4.459,29.258-1.006,9.014-10.074,17.674-10.958,27.477-.829,9.218,6.526,19.374,5.805,29.013-.707,9.367-9.517,18.3-10.1,27.816s6.975,19.469,6.458,28.863c-.53,9.626-9.163,18.721-9.612,27.979-.462,9.8,7.274,19.686,6.893,28.768-.421,10.074-8.932,19.292-9.245,28.1-.381,10.686,7.464,20.543,7.219,28.687-.517,17.674-8.606,13.99-8.891,28.211Z" transform="translate(-327.542 -179.399)" fill="#7e57c2"/>
        <line id="Line_134" data-name="Line 134" y2="306.851" transform="translate(97.086 28.287)" fill="none" stroke="#000" stroke-miterlimit="10" stroke-width="1.098"/>
        <path id="Path_13381" data-name="Path 13381" d="M432.829,228.819l-13.99,12.086-11.447-15.268" transform="translate(-322.325 -168.365)" fill="none" stroke="#000" stroke-miterlimit="10" stroke-width="1.098"/>
        <path id="Path_13382" data-name="Path 13382" d="M432.829,271.944l-13.99,12.073-11.447-15.254" transform="translate(-322.325 -158.073)" fill="none" stroke="#000" stroke-miterlimit="10" stroke-width="1.098"/>
        <path id="Path_13383" data-name="Path 13383" d="M432.829,312.49l-13.99,12.086-11.447-15.268" transform="translate(-322.325 -148.398)" fill="none" stroke="#000" stroke-miterlimit="10" stroke-width="1.098"/>
        <path id="Path_13384" data-name="Path 13384" d="M432.829,360.752l-13.99,12.073-11.447-15.254" transform="translate(-322.325 -136.88)" fill="none" stroke="#000" stroke-miterlimit="10" stroke-width="1.098"/>
        <path id="Path_13385" data-name="Path 13385" d="M432.829,409.519l-13.99,12.073-11.447-15.254" transform="translate(-322.325 -125.243)" fill="none" stroke="#000" stroke-miterlimit="10" stroke-width="1.098"/>
        <path id="Path_13386" data-name="Path 13386" d="M340.386,503.614h66.333c-1.278-8.157-6.485-6.689-7.178-19.251-.354-6.336,5.506-14.167,5-22.487-.421-6.8-7.165-13.881-7.7-21.753-.476-7.07,5.289-14.955,4.731-22.541-.53-7.206-7.369-14.112-7.981-21.6s5.057-15.241,4.391-22.623-7.641-14.18-8.375-21.454c-.761-7.491,4.7-15.54,3.861-22.718-.884-7.6-8.062-14.167-9.027-21.168-1.088-7.8,4-16.138,2.8-22.868-1.455-8.253-9.136-14.235-10.74-20.312-3.018-11.339-2.638-22.283-6.2-22.99-3.793-.761-4.663,9.952-7.532,21.943-1.441,6.009-8.959,12.114-10.2,20.393-.992,6.689,4.31,14.819,3.44,22.582-.775,6.961-7.763,13.6-8.456,21.209-.639,7.11,5.044,14.955,4.486,22.392-.544,7.233-7.328,14.126-7.8,21.467s5.438,15.037,4.99,22.283-7.07,14.452-7.41,21.6c-.367,7.559,5.6,15.186,5.316,22.2-.326,7.777-6.893,14.955-7.138,21.753-.3,8.239,5.764,15.866,5.574,22.133-.408,13.6-6.648,10.808-6.866,21.753Z" transform="translate(-338.714 -164.506)" fill="#ffdf61"/>
        <line id="Line_135" data-name="Line 135" y2="236.861" transform="translate(30.155 99.187)" fill="none" stroke="#000" stroke-miterlimit="10" stroke-width="1.098"/>
        <path id="Path_13387" data-name="Path 13387" d="M375.194,279.993,364.4,289.32l-8.837-11.787" transform="translate(-334.693 -155.981)" fill="none" stroke="#000" stroke-miterlimit="10" stroke-width="1.098"/>
        <path id="Path_13388" data-name="Path 13388" d="M375.194,313.271,364.4,322.6l-8.837-11.774" transform="translate(-334.693 -148.036)" fill="none" stroke="#000" stroke-miterlimit="10" stroke-width="1.098"/>
        <path id="Path_13389" data-name="Path 13389" d="M375.194,344.575,364.4,353.9l-8.837-11.774" transform="translate(-334.693 -140.566)" fill="none" stroke="#000" stroke-miterlimit="10" stroke-width="1.098"/>
        <path id="Path_13390" data-name="Path 13390" d="M375.194,381.83,364.4,391.157l-8.837-11.787" transform="translate(-334.693 -131.678)" fill="none" stroke="#000" stroke-miterlimit="10" stroke-width="1.098"/>
        <path id="Path_13391" data-name="Path 13391" d="M375.194,419.479,364.4,428.792l-8.837-11.774" transform="translate(-334.693 -122.694)" fill="none" stroke="#000" stroke-miterlimit="10" stroke-width="1.098"/>
      </g>
      <g id="freepik--Mailbox--inject-1--inject-19" transform="translate(98.406 47.36)">
        <path id="Path_13392" data-name="Path 13392" d="M292.328,505.615V230.741h14.506V505.615" transform="translate(-119.217 -95.697)" fill="#2e353a" stroke="#2e353a" stroke-linecap="round" stroke-linejoin="round" stroke-width="1.098"/>
        <path id="Path_13393" data-name="Path 13393" d="M286.478,505.615V230.741h14.506V505.615" transform="translate(-120.613 -95.697)" fill="#7e57c2" stroke="#2e353a" stroke-linecap="round" stroke-linejoin="round" stroke-width="1.098"/>
        <rect id="Rectangle_6374" data-name="Rectangle 6374" width="14.506" height="32.629" transform="translate(165.865 135.044)" fill="#2e353a" opacity="0.3"/>
        <path id="Path_13394" data-name="Path 13394" d="M357.161,144.106H249.675l46.85,115.072h107.5V190.956a46.85,46.85,0,0,0-46.864-46.85Z" transform="translate(-129.396 -116.371)" fill="#7e57c2" stroke="#2e353a" stroke-linecap="round" stroke-linejoin="round" stroke-width="1.098"/>
        <path id="Path_13395" data-name="Path 13395" d="M280.88,230.6l8.157,20.149H396.578V182.525a29.137,29.137,0,0,0-.109-3.086H280.908Z" transform="translate(-121.949 -107.94)" opacity="0.3"/>
        <line id="Line_136" data-name="Line 136" x1="11.311" transform="translate(215.666 71.499)" fill="none" stroke="#2e353a" stroke-linecap="round" stroke-linejoin="round" stroke-width="1.098"/>
        <line id="Line_137" data-name="Line 137" x1="34.234" transform="translate(240.287 71.499)" fill="none" stroke="#2e353a" stroke-linecap="round" stroke-linejoin="round" stroke-width="1.098"/>
        <path id="Path_13396" data-name="Path 13396" d="M258.7,144.106h0a46.864,46.864,0,0,1,46.864,46.864v68.222H211.84V190.956A46.864,46.864,0,0,1,258.7,144.106Z" transform="translate(-138.424 -116.371)" fill="#2e353a" stroke="#2e353a" stroke-linecap="round" stroke-linejoin="round" stroke-width="1.098"/>
        <rect id="Rectangle_6375" data-name="Rectangle 6375" width="80.757" height="7.763" transform="translate(86.372 135.044)" fill="#7e57c2" stroke="#2e353a" stroke-linecap="round" stroke-linejoin="round" stroke-width="1.098"/>
        <rect id="Rectangle_6376" data-name="Rectangle 6376" width="167.13" height="7.763" transform="translate(0 135.044)" fill="#7e57c2" stroke="#2e353a" stroke-linecap="round" stroke-linejoin="round" stroke-width="1.098"/>
        <rect id="Rectangle_6377" data-name="Rectangle 6377" width="80.757" height="7.763" transform="translate(86.372 135.044)" opacity="0.3"/>
        <rect id="Rectangle_6378" data-name="Rectangle 6378" width="33.54" height="23.561" transform="translate(201.214)" fill="#2e353a" stroke="#2e353a" stroke-linecap="round" stroke-linejoin="round" stroke-width="1.098"/>
        <rect id="Rectangle_6379" data-name="Rectangle 6379" width="7.246" height="73.416" transform="translate(196.686)" fill="#fff" stroke="#2e353a" stroke-linecap="round" stroke-linejoin="round" stroke-width="1.098"/>
        <circle id="Ellipse_414" data-name="Ellipse 414" cx="8.157" cy="8.157" r="8.157" transform="translate(192.145 67.067)" fill="#2e353a" stroke="#2e353a" stroke-linecap="round" stroke-linejoin="round" stroke-width="1.098"/>
      </g>
      <g id="freepik--paper-planes--inject-1--inject-19" transform="translate(0 28.666)">
        <path id="Path_13397" data-name="Path 13397" d="M217.7,159.319c18.925,9.612,51.826,25.016,82.171,32.765" transform="translate(-38.619 -94.047)" fill="none" stroke="#fff" stroke-linecap="round" stroke-linejoin="round" stroke-width="1.098" stroke-dasharray="2 4"/>
        <path id="Path_13398" data-name="Path 13398" d="M204.881,152.569s6.064,3.426,15.88,8.416" transform="translate(-41.679 -95.658)" fill="none" stroke="#2e353a" stroke-linecap="round" stroke-linejoin="round" stroke-width="1.098" stroke-dasharray="2 4"/>
        <path id="Path_13399" data-name="Path 13399" d="M215.774,163.03l13.609-32.33-98.69-24.078Z" transform="translate(-59.383 -106.623)" fill="#fff" stroke="#2e353a" stroke-linecap="round" stroke-linejoin="round" stroke-width="1.386"/>
        <path id="Path_13400" data-name="Path 13400" d="M222.409,134.616l-6.635,28.415-85.081-56.408Z" transform="translate(-59.383 -106.623)" fill="#ffcc03" stroke="#2e353a" stroke-linecap="round" stroke-linejoin="round" stroke-width="1.386"/>
        <path id="Path_13401" data-name="Path 13401" d="M222.409,134.616l-15.485,13.269-76.23-41.262Z" transform="translate(-59.383 -106.623)" fill="#fff" stroke="#2e353a" stroke-linecap="round" stroke-linejoin="round" stroke-width="1.386"/>
        <path id="Path_13402" data-name="Path 13402" d="M229.383,130.7l13.786-5.6L130.693,106.623Z" transform="translate(-59.383 -106.623)" fill="#fff" stroke="#2e353a" stroke-linecap="round" stroke-linejoin="round" stroke-width="1.386"/>
        <line id="Line_138" data-name="Line 138" x2="3.195" y2="1.958" transform="translate(137.222 51.377)" fill="none" stroke="#2e353a" stroke-linecap="round" stroke-linejoin="round" stroke-width="1.098"/>
        <line id="Line_139" data-name="Line 139" x2="10.7" y2="6.553" transform="translate(119.792 40.691)" fill="none" stroke="#2e353a" stroke-linecap="round" stroke-linejoin="round" stroke-width="1.098"/>
        <path id="Path_13403" data-name="Path 13403" d="M160.131,208.882V173.819l100.308,16.124Z" transform="translate(-52.358 -90.587)" fill="#fff" stroke="#2e353a" stroke-linecap="round" stroke-linejoin="round" stroke-width="1.386"/>
        <path id="Path_13404" data-name="Path 13404" d="M165.039,178.912l-4.908,28.755,100.308-18.939Z" transform="translate(-52.358 -89.372)" fill="#ffcc03" stroke="#2e353a" stroke-linecap="round" stroke-linejoin="round" stroke-width="1.386"/>
        <path id="Path_13405" data-name="Path 13405" d="M164.094,178.912l9.123,18.232,86.277-8.416Z" transform="translate(-51.412 -89.372)" fill="#fff" stroke="#2e353a" stroke-linecap="round" stroke-linejoin="round" stroke-width="1.386"/>
        <path id="Path_13406" data-name="Path 13406" d="M162.159,175.846l-10.523-10.523L262.467,191.97Z" transform="translate(-54.385 -92.614)" fill="#fff" stroke="#2e353a" stroke-linecap="round" stroke-linejoin="round" stroke-width="1.386"/>
        <line id="Line_140" data-name="Line 140" y1="1.767" x2="8.701" transform="translate(143.693 115.875)" fill="none" stroke="#2e353a" stroke-linecap="round" stroke-linejoin="round" stroke-width="1.098"/>
        <line id="Line_141" data-name="Line 141" y1="4.446" x2="21.875" transform="translate(113.13 119.409)" fill="none" stroke="#2e353a" stroke-linecap="round" stroke-linejoin="round" stroke-width="1.098"/>
        <path id="Path_13407" data-name="Path 13407" d="M168.809,200.381S89.955,213.977,75,284.673s63.9,74.775,77.494,40.787S106.27,277.876,92.674,310.5s27.191,88.371,82.933,91.09c46.32,2.257,176.184-51.812,256.955-65.476,0,0,59.82-16.559,152.27-12.929" transform="translate(-73.122 -84.248)" fill="none" stroke="#2e353a" stroke-linecap="round" stroke-linejoin="round" stroke-width="1.098" stroke-dasharray="2 4"/>
      </g>
      <g id="freepik--Fence--inject-1--inject-19" transform="translate(7.765 283.299)">
        <line id="Line_142" data-name="Line 142" x2="22.664" transform="translate(477.203 83.107)" fill="#fff" stroke="#2e353a" stroke-linecap="round" stroke-linejoin="round" stroke-width="1.098"/>
        <line id="Line_143" data-name="Line 143" x2="22.664" transform="translate(477.203 116.634)" fill="#fff" stroke="#2e353a" stroke-linecap="round" stroke-linejoin="round" stroke-width="1.098"/>
        <path id="Path_13408" data-name="Path 13408" d="M79.391,411.749H553.874V380.017H79.391" transform="translate(-79.391 -296.013)" fill="#fff" stroke="#2e353a" stroke-linecap="round" stroke-linejoin="round" stroke-width="1.098"/>
        <path id="Path_13409" data-name="Path 13409" d="M106.019,486.393V326.755a2.9,2.9,0,0,1,.9-2.094l12.4-11.679a2.9,2.9,0,0,1,4.079.122l10.876,11.57a2.95,2.95,0,0,1,.775,1.971V486.393" transform="translate(-73.036 -312.196)" fill="#2e353a" stroke="#2e353a" stroke-linecap="round" stroke-linejoin="round" stroke-width="1.098"/>
        <path id="Path_13410" data-name="Path 13410" d="M103.176,487.754v-161a2.855,2.855,0,0,1,.911-2.094l12.4-11.679a2.882,2.882,0,0,1,4.079.122l10.876,11.57a2.882,2.882,0,0,1,.775,1.971V487.754" transform="translate(-73.715 -312.197)" fill="#fff" stroke="#2e353a" stroke-linecap="round" stroke-linejoin="round" stroke-width="1.098"/>
        <path id="Path_13411" data-name="Path 13411" d="M190.426,486.394V326.756a2.9,2.9,0,0,1,.9-2.094l12.413-11.679a2.882,2.882,0,0,1,4.079.122l10.876,11.57a2.882,2.882,0,0,1,.775,1.971V486.394" transform="translate(-52.893 -312.197)" fill="#2e353a" stroke="#2e353a" stroke-linecap="round" stroke-linejoin="round" stroke-width="1.098"/>
        <path id="Path_13412" data-name="Path 13412" d="M188.055,487.753v-161a2.855,2.855,0,0,1,.911-2.094l12.4-11.679a2.9,2.9,0,0,1,4.079.122l10.876,11.57a2.9,2.9,0,0,1,.789,1.971V487.753" transform="translate(-53.459 -312.196)" fill="#fff" stroke="#2e353a" stroke-linecap="round" stroke-linejoin="round" stroke-width="1.098"/>
        <path id="Path_13413" data-name="Path 13413" d="M275.3,486.393V326.755a2.855,2.855,0,0,1,.911-2.094l12.4-11.679a2.9,2.9,0,0,1,4.079.122l10.876,11.57a2.9,2.9,0,0,1,.789,1.971V487.753" transform="translate(-32.638 -312.196)" fill="#2e353a" stroke="#2e353a" stroke-linecap="round" stroke-linejoin="round" stroke-width="1.098"/>
        <path id="Path_13414" data-name="Path 13414" d="M272.945,487.754v-161a2.9,2.9,0,0,1,.9-2.094l12.413-11.679a2.882,2.882,0,0,1,4.079.122l10.876,11.57a2.882,2.882,0,0,1,.775,1.971V487.754" transform="translate(-33.201 -312.197)" fill="#fff" stroke="#2e353a" stroke-linecap="round" stroke-linejoin="round" stroke-width="1.098"/>
        <path id="Path_13415" data-name="Path 13415" d="M360.194,486.393V326.755a2.9,2.9,0,0,1,.9-2.094l12.4-11.678a2.9,2.9,0,0,1,4.079.122l10.876,11.57a2.951,2.951,0,0,1,.775,1.971V486.393" transform="translate(-12.38 -312.196)" fill="#2e353a" stroke="#2e353a" stroke-linecap="round" stroke-linejoin="round" stroke-width="1.098"/>
        <path id="Path_13416" data-name="Path 13416" d="M357.823,487.754v-161a2.855,2.855,0,0,1,.911-2.094l12.4-11.679a2.882,2.882,0,0,1,4.079.122l10.876,11.57a2.882,2.882,0,0,1,.775,1.971V487.754" transform="translate(-12.946 -312.197)" fill="#fff" stroke="#2e353a" stroke-linecap="round" stroke-linejoin="round" stroke-width="1.098"/>
        <path id="Path_13417" data-name="Path 13417" d="M445.073,486.394V326.756a2.9,2.9,0,0,1,.9-2.094l12.413-11.679a2.882,2.882,0,0,1,4.079.122l10.876,11.57a2.883,2.883,0,0,1,.775,1.971V486.394" transform="translate(7.875 -312.197)" fill="#2e353a" stroke="#2e353a" stroke-linecap="round" stroke-linejoin="round" stroke-width="1.098"/>
        <path id="Path_13418" data-name="Path 13418" d="M442.7,487.753v-161a2.855,2.855,0,0,1,.911-2.094l12.4-11.679a2.9,2.9,0,0,1,4.079.122l10.876,11.57a2.9,2.9,0,0,1,.789,1.971V487.753" transform="translate(7.31 -312.196)" fill="#fff" stroke="#2e353a" stroke-linecap="round" stroke-linejoin="round" stroke-width="1.098"/>
        <line id="Line_144" data-name="Line 144" y2="11.638" transform="translate(46.837 0.908)" fill="none" stroke="#2e353a" stroke-linecap="round" stroke-linejoin="round" stroke-width="1.098"/>
        <line id="Line_145" data-name="Line 145" y2="27.545" transform="translate(51.5 6.918)" fill="none" stroke="#2e353a" stroke-linecap="round" stroke-linejoin="round" stroke-width="1.098"/>
        <line id="Line_146" data-name="Line 146" y2="34.845" transform="translate(140.319 9.175)" fill="none" stroke="#2e353a" stroke-linecap="round" stroke-linejoin="round" stroke-width="1.098"/>
        <line id="Line_147" data-name="Line 147" y2="15.173" transform="translate(144.82 4.674)" fill="none" stroke="#2e353a" stroke-linecap="round" stroke-linejoin="round" stroke-width="1.098"/>
        <line id="Line_148" data-name="Line 148" y2="34.247" transform="translate(253.053 0.786)" fill="none" stroke="#2e353a" stroke-linecap="round" stroke-linejoin="round" stroke-width="1.098"/>
        <line id="Line_149" data-name="Line 149" y2="50.603" transform="translate(259.511 3.546)" fill="none" stroke="#2e353a" stroke-linecap="round" stroke-linejoin="round" stroke-width="1.098"/>
        <line id="Line_150" data-name="Line 150" y2="38.217" transform="translate(350.017 9.175)" fill="none" stroke="#2e353a" stroke-linecap="round" stroke-linejoin="round" stroke-width="1.098"/>
        <line id="Line_151" data-name="Line 151" y2="9.558" transform="translate(364.632 4.674)" fill="none" stroke="#2e353a" stroke-linecap="round" stroke-linejoin="round" stroke-width="1.098"/>
        <line id="Line_152" data-name="Line 152" y2="20.244" transform="translate(459.637 4.103)" fill="none" stroke="#2e353a" stroke-linecap="round" stroke-linejoin="round" stroke-width="1.098"/>
        <line id="Line_153" data-name="Line 153" y2="58.461" transform="translate(472.009 6.36)" fill="none" stroke="#2e353a" stroke-linecap="round" stroke-linejoin="round" stroke-width="1.098"/>
        <line id="Line_154" data-name="Line 154" x1="12.372" transform="translate(437.15 91.808)" fill="none" stroke="#2e353a" stroke-linecap="round" stroke-linejoin="round" stroke-width="1.098"/>
        <line id="Line_155" data-name="Line 155" x1="43.288" transform="translate(406.234 101.366)" fill="none" stroke="#2e353a" stroke-linecap="round" stroke-linejoin="round" stroke-width="1.098"/>
        <line id="Line_156" data-name="Line 156" x1="19.673" transform="translate(268.498 101.366)" fill="none" stroke="#2e353a" stroke-linecap="round" stroke-linejoin="round" stroke-width="1.098"/>
        <line id="Line_157" data-name="Line 157" x1="19.673" transform="translate(165.063 101.366)" fill="none" stroke="#2e353a" stroke-linecap="round" stroke-linejoin="round" stroke-width="1.098"/>
        <line id="Line_158" data-name="Line 158" x1="19.673" transform="translate(9.34 96.308)" fill="none" stroke="#2e353a" stroke-linecap="round" stroke-linejoin="round" stroke-width="1.098"/>
        <line id="Line_159" data-name="Line 159" x1="7.872" transform="translate(21.141 105.295)" fill="none" stroke="#2e353a" stroke-linecap="round" stroke-linejoin="round" stroke-width="1.098"/>
        <line id="Line_160" data-name="Line 160" x1="9.558" transform="translate(268.498 96.308)" fill="none" stroke="#2e353a" stroke-linecap="round" stroke-linejoin="round" stroke-width="1.098"/>
        <line id="Line_161" data-name="Line 161" x1="9.558" transform="translate(163.935 106.981)" fill="none" stroke="#2e353a" stroke-linecap="round" stroke-linejoin="round" stroke-width="1.098"/>
        <line id="Line_162" data-name="Line 162" x1="9.558" transform="translate(124.018 106.981)" fill="none" stroke="#2e353a" stroke-linecap="round" stroke-linejoin="round" stroke-width="1.098"/>
        <line id="Line_163" data-name="Line 163" x1="8.429" transform="translate(479.31 101.366)" fill="none" stroke="#2e353a" stroke-linecap="round" stroke-linejoin="round" stroke-width="1.098"/>
        <line id="Line_164" data-name="Line 164" x1="5.058" transform="translate(493.925 101.366)" fill="none" stroke="#2e353a" stroke-linecap="round" stroke-linejoin="round" stroke-width="1.098"/>
        <path id="Path_13419" data-name="Path 13419" d="M127.9,346.847s-3.4,29.217-7.478,59.113,3.4,60.486,5.438,63.206" transform="translate(-69.885 -303.929)" fill="none" stroke="#2e353a" stroke-linecap="round" stroke-linejoin="round" stroke-width="1.098"/>
        <path id="Path_13420" data-name="Path 13420" d="M115.371,396.427c.653-5.832,1.2-9.517,1.2-9.517" transform="translate(-70.804 -294.368)" fill="none" stroke="#2e353a" stroke-linecap="round" stroke-linejoin="round" stroke-width="1.098"/>
        <path id="Path_13421" data-name="Path 13421" d="M125.828,452.547s-12.236-2.719-12.236-24.472c0-8.932.571-18.082,1.251-25.831" transform="translate(-71.229 -290.709)" fill="none" stroke="#2e353a" stroke-linecap="round" stroke-linejoin="round" stroke-width="1.098"/>
        <path id="Path_13422" data-name="Path 13422" d="M207.347,318.858s2.719,2.039-2.039,25.152-4.079,57.1,2.039,76.135" transform="translate(-50.087 -310.608)" fill="none" stroke="#2e353a" stroke-linecap="round" stroke-linejoin="round" stroke-width="1.098"/>
        <path id="Path_13423" data-name="Path 13423" d="M212.559,353.433s-6.8,20.393-2.039,48.944" transform="translate(-48.502 -302.357)" fill="none" stroke="#2e353a" stroke-linecap="round" stroke-linejoin="round" stroke-width="1.098"/>
        <path id="Path_13424" data-name="Path 13424" d="M274.535,363.849s3.4,19.713,6.8,40.093.68,48.944-2.039,56.408-5.438,13.6-5.438,13.6" transform="translate(-32.984 -299.871)" fill="none" stroke="#2e353a" stroke-linecap="round" stroke-linejoin="round" stroke-width="1.098"/>
        <path id="Path_13425" data-name="Path 13425" d="M286.054,444.968c-3.032,9.3-6.8-1.563-6.8-1.563" transform="translate(-31.695 -280.886)" fill="none" stroke="#2e353a" stroke-linecap="round" stroke-linejoin="round" stroke-width="1.098"/>
        <path id="Path_13426" data-name="Path 13426" d="M284.645,388.557s6.4,33.051,2.787,57.931" transform="translate(-30.409 -293.975)" fill="none" stroke="#2e353a" stroke-linecap="round" stroke-linejoin="round" stroke-width="1.098"/>
        <path id="Path_13427" data-name="Path 13427" d="M273.307,397.338s6.8,14.275.68,27.871" transform="translate(-33.115 -291.88)" fill="none" stroke="#2e353a" stroke-linecap="round" stroke-linejoin="round" stroke-width="1.098"/>
        <path id="Path_13428" data-name="Path 13428" d="M375.715,398.962A92.744,92.744,0,0,0,379.29,411.2" transform="translate(-8.676 -291.492)" fill="none" stroke="#2e353a" stroke-linecap="round" stroke-linejoin="round" stroke-width="1.098"/>
        <path id="Path_13429" data-name="Path 13429" d="M381.849,341.908a188.667,188.667,0,0,0-8.157,42.146,97.192,97.192,0,0,0,1.21,21.658" transform="translate(-9.195 -305.107)" fill="none" stroke="#2e353a" stroke-linecap="round" stroke-linejoin="round" stroke-width="1.098"/>
        <path id="Path_13430" data-name="Path 13430" d="M369.82,392.376s6.118,23.112,9.517,31.27,2.039,27.857-2.039,37.374" transform="translate(-10.083 -293.064)" fill="none" stroke="#2e353a" stroke-linecap="round" stroke-linejoin="round" stroke-width="1.098"/>
        <path id="Path_13431" data-name="Path 13431" d="M443.888,350.14s13.6,24.472.68,64.565" transform="translate(7.593 -303.143)" fill="none" stroke="#2e353a" stroke-linecap="round" stroke-linejoin="round" stroke-width="1.098"/>
        <path id="Path_13432" data-name="Path 13432" d="M456.382,383.881c.082,7.641-.6,17.321-3.657,25.478-6.118,16.315-8.837,21.753-8.837,21.753" transform="translate(7.593 -295.091)" fill="none" stroke="#2e353a" stroke-linecap="round" stroke-linejoin="round" stroke-width="1.098"/>
        <path id="Path_13433" data-name="Path 13433" d="M453.217,373.19s.449,2.923.721,7.423" transform="translate(9.819 -297.642)" fill="none" stroke="#2e353a" stroke-linecap="round" stroke-linejoin="round" stroke-width="1.098"/>
      </g>
    </g>
  </g>
</svg>
