<svg xmlns="http://www.w3.org/2000/svg" xmlns:xlink="http://www.w3.org/1999/xlink" width="351" height="267" viewBox="0 0 351 267">
  <defs>
    <clipPath id="clip-path">
      <rect id="Rectangle_6360" data-name="Rectangle 6360" width="351" height="267" transform="translate(742 9578)" fill="#fff" stroke="#707070" stroke-width="1"/>
    </clipPath>
  </defs>
  <g id="Mask_Group_257" data-name="Mask Group 257" transform="translate(-742 -9578)" clip-path="url(#clip-path)">
    <g id="Mail_sent-rafiki" data-name="Mail sent-rafiki" transform="translate(742 9592.481)">
      <g id="freepik--background-complete--inject-13" transform="translate(0 0)">
        <rect id="Rectangle_6361" data-name="Rectangle 6361" width="351.256" height="0.176" transform="translate(0 230.002)" fill="#e0e0e0"/>
        <rect id="Rectangle_6362" data-name="Rectangle 6362" width="24.166" height="0.176" transform="translate(241.144 237.442)" fill="#e0e0e0"/>
        <rect id="Rectangle_6363" data-name="Rectangle 6363" width="13.601" height="0.176" transform="translate(64.406 237.526)" fill="#e0e0e0"/>
        <rect id="Rectangle_6364" data-name="Rectangle 6364" width="27.567" height="0.176" transform="translate(148.764 237.119)" fill="#e0e0e0"/>
        <rect id="Rectangle_6365" data-name="Rectangle 6365" width="12.322" height="0.176" transform="translate(135.739 234.618)" fill="#e0e0e0"/>
        <rect id="Rectangle_6366" data-name="Rectangle 6366" width="37.226" height="0.176" transform="translate(261.032 234.709)" fill="#e0e0e0"/>
        <path id="Path_13196" data-name="Path 13196" d="M172.971,246.63H37.323a4.011,4.011,0,0,1-4-4.011V51.936a4.011,4.011,0,0,1,4-3.976H172.971a4.011,4.011,0,0,1,4.011,4.011V242.619A4.011,4.011,0,0,1,172.971,246.63ZM37.323,48.1a3.836,3.836,0,0,0-3.829,3.836V242.619a3.836,3.836,0,0,0,3.829,3.836H172.971a3.843,3.843,0,0,0,3.836-3.836V51.936a3.843,3.843,0,0,0-3.836-3.836Z" transform="translate(-6.476 -47.96)" fill="#e0e0e0"/>
        <path id="Path_13197" data-name="Path 13197" d="M361.59,246.63H225.935a4.018,4.018,0,0,1-4.011-4.011V51.936a4.018,4.018,0,0,1,4.011-3.976H361.59a4.011,4.011,0,0,1,4,3.976V242.619A4.011,4.011,0,0,1,361.59,246.63ZM225.935,48.1a3.843,3.843,0,0,0-3.836,3.836V242.619a3.843,3.843,0,0,0,3.836,3.836H361.59a3.843,3.843,0,0,0,3.836-3.836V51.936A3.843,3.843,0,0,0,361.59,48.1Z" transform="translate(-43.135 -47.96)" fill="#e0e0e0"/>
        <path id="Path_13198" data-name="Path 13198" d="M367.707,200.1c-8.641-13.158-.752-27.3-2.065-41.94s-15.223-17.83-12.589-30.208c3.049-14.387-5.079-28.192-14.289-28.192s-17.331,13.769-14.282,28.171c2.634,12.4-11.24,15.6-12.589,30.208s6.576,28.8-2.072,41.94-6.372,30.58-1.5,39.228a33.531,33.531,0,0,0,4.651,6.358,35.259,35.259,0,0,0,51.6,0,33.812,33.812,0,0,0,4.644-6.358C374.086,230.677,376.355,213.283,367.707,200.1Z" transform="translate(-59.087 -58.028)" fill="#e0e0e0"/>
        <path id="Path_13199" data-name="Path 13199" d="M346.1,236.7h0a4.37,4.37,0,0,1,4.37,4.37v73.581h-8.739V241.065A4.37,4.37,0,0,1,346.1,236.7Z" transform="translate(-66.421 -84.644)" fill="#f0f0f0"/>
        <path id="Path_13200" data-name="Path 13200" d="M276.1,314.267H264.216V240.693a5.964,5.964,0,0,1,5.95-5.95h0a5.964,5.964,0,0,1,5.95,5.95Z" transform="translate(-51.355 -84.264)" fill="#e0e0e0"/>
        <circle id="Ellipse_409" data-name="Ellipse 409" cx="36.65" cy="36.65" r="36.65" transform="translate(182.14 136.856)" fill="#f0f0f0"/>
        <circle id="Ellipse_410" data-name="Ellipse 410" cx="14.444" cy="14.444" r="14.444" transform="matrix(0.241, -0.971, 0.971, 0.241, 230.339, 169.561)" fill="#f0f0f0"/>
        <circle id="Ellipse_411" data-name="Ellipse 411" cx="8.55" cy="8.55" r="8.55" transform="matrix(0.161, -0.987, 0.987, 0.161, 179.331, 157.536)" fill="#f0f0f0"/>
        <circle id="Ellipse_412" data-name="Ellipse 412" cx="5.999" cy="5.999" r="5.999" transform="translate(192.446 140.053)" fill="#f0f0f0"/>
        <path id="Path_13201" data-name="Path 13201" d="M154.579,273.9a39.727,39.727,0,0,0-15.961,6.091c-.042-5.564-1.061-10.84-3.674-15.1a51.235,51.235,0,0,0-9.835,14.282c-.962-10.109-3.625-19.944-9.519-26.176-8.831,5.557-13.383,14.816-15.547,24.623A44.588,44.588,0,0,0,84.96,261.332c-5.4,5.69-7.131,13.558-6.983,21.623-6.14-7.152-12.954-12.729-19.6-13.383-1.637,11.3,1.848,21.968,6.28,30.4a33.664,33.664,0,0,0,29.836,17.851h28.866a33.4,33.4,0,0,0,29.6-17.429C156.609,293.507,158.352,284.649,154.579,273.9Z" transform="translate(-11.267 -87.812)" fill="#e0e0e0"/>
        <path id="Path_13202" data-name="Path 13202" d="M145.487,93.471c3.562-10.446.7-17.886-7.988-17.886-5.466,0-12.245,2.929-18.848,7.692-.745-2.719-2.845-4.342-6.224-4.342-5.95,0-14.149,5.03-20.577,12.125a9.835,9.835,0,0,0-6.7-2.7c-5.7-.323-12.589,2.571-18.581,7.271a3.239,3.239,0,0,0-2.641-1.356c-3.281-.183-7.728,2.74-9.926,6.519-.133.232-.253.464-.379.7h93.6C147.5,98.192,146.913,95.438,145.487,93.471Z" transform="translate(-10.422 -53.329)" fill="#f0f0f0"/>
        <path id="Path_13203" data-name="Path 13203" d="M157.188,174.412c1.742-5.1.358-8.732-3.9-8.732-2.677,0-5.985,1.405-9.21,3.758a2.852,2.852,0,0,0-3.042-2.108c-2.9,0-6.906,2.459-10.053,5.929a4.77,4.77,0,0,0-3.274-1.321c-2.81-.162-6.147,1.25-9.076,3.548a1.581,1.581,0,0,0-1.257-.674c-1.6-.091-3.772,1.335-4.847,3.182l-.19.337h45.719a5.74,5.74,0,0,0-.871-3.92Z" transform="translate(-21.835 -70.841)" fill="#f0f0f0"/>
        <path id="Path_13204" data-name="Path 13204" d="M268.881,123.744a7.945,7.945,0,0,0-1.089-.077c.337-5.093-1.609-8.353-5.775-8.353-3,0-6.688,1.7-10.439,4.573,1.075-9.891-2.367-16.319-10.165-16.319-6.28,0-14.24,4.215-22.1,11-.7-3.878-3.007-6.21-6.9-6.21-6.835,0-16.551,7.194-24.342,17.338h0a9.835,9.835,0,0,0-7.545-3.885c-6.505-.457-14.591,3.674-21.778,10.4a3.323,3.323,0,0,0-2.958-1.932c-3.562-.253-8.43,3.463-11.317,8.43H274.606C277.662,131.183,275.231,124.594,268.881,123.744Z" transform="translate(-28.081 -58.768)" fill="#f0f0f0"/>
      </g>
      <g id="freepik--Mail--inject-13" transform="translate(34.325 27.351)">
        <path id="Path_13205" data-name="Path 13205" d="M42.606,131.288l160.152,23.056,21.49,21.687Z" transform="translate(-42.606 -91.508)" fill="#7717ff"/>
        <path id="Path_13206" data-name="Path 13206" d="M42.606,131.288l160.152,23.056,21.49,21.687Z" transform="translate(-42.606 -91.508)" fill="#fff" opacity="0.6"/>
        <path id="Path_13207" data-name="Path 13207" d="M42.606,131.288l160.152,23.056-7.433,31.36Z" transform="translate(-42.606 -91.508)" fill="#7717ff"/>
        <path id="Path_13208" data-name="Path 13208" d="M42.606,131.288l160.152,23.056-7.433,31.36Z" transform="translate(-42.606 -91.508)" opacity="0.2"/>
        <path id="Path_13210" data-name="Path 13210" d="M205.982,85.387l9.294,43.556a4.391,4.391,0,0,1-3.372,5.206l-82.953,17.7a4.4,4.4,0,0,1-5.206-3.372l-9.3-43.556a4.4,4.4,0,0,1,3.379-5.206l82.953-17.7a4.4,4.4,0,0,1,5.206,3.379Z" transform="translate(-56.55 -81.912)" fill="#ffcc03"/>
        <path id="Path_13211" data-name="Path 13211" d="M204.13,82.533l-27.714,34.023a17.865,17.865,0,0,1-21.883,4.672l-39.193-19.741a4.37,4.37,0,0,1,2.677-1.777l82.953-17.7a4.377,4.377,0,0,1,3.161.527Z" transform="translate(-56.743 -81.91)" fill="#fe0"/>
        <path id="Path_13212" data-name="Path 13212" d="M42.606,131.288l132.093,31.4L195.325,185.7Z" transform="translate(-42.606 -91.508)" fill="#7717ff"/>
        <path id="Path_13213" data-name="Path 13213" d="M42.606,131.288l132.093,31.4L195.325,185.7Z" transform="translate(-42.606 -91.508)" fill="#fff" opacity="0.6"/>
        <rect id="Rectangle_6367" data-name="Rectangle 6367" width="0.703" height="17.036" transform="matrix(0.505, -0.863, 0.863, 0.505, 47.83, 70.647)" fill="#7717ff"/>
        <rect id="Rectangle_6368" data-name="Rectangle 6368" width="0.703" height="6.126" transform="matrix(0.505, -0.863, 0.863, 0.505, 69.02, 83.054)" fill="#7717ff"/>
        <path id="Path_13214" data-name="Path 13214" d="M42.606,131.288l132.093,31.4-25.677,30.946Z" transform="translate(-42.606 -91.508)" fill="#7717ff"/>
        <path id="Path_13215" data-name="Path 13215" d="M256.384,219.854a1.4,1.4,0,0,1-.52-.1l-21.511-8.514a1.405,1.405,0,1,1,1.033-2.613l21.518,8.514a1.405,1.405,0,0,1-.52,2.712Z" transform="translate(-79.703 -106.521)" fill="#7717ff"/>
        <path id="Path_13216" data-name="Path 13216" d="M256.384,219.854a1.4,1.4,0,0,1-.52-.1l-21.511-8.514a1.405,1.405,0,1,1,1.033-2.613l21.518,8.514a1.405,1.405,0,0,1-.52,2.712Z" transform="translate(-79.703 -106.521)" opacity="0.3"/>
        <path id="Path_13217" data-name="Path 13217" d="M257.209,205.485a1.342,1.342,0,0,1-.513-.105l-11.556-4.6a1.4,1.4,0,1,1,1.033-2.613l11.556,4.58a1.423,1.423,0,0,1-.52,2.74Z" transform="translate(-81.799 -104.487)" fill="#7717ff"/>
        <path id="Path_13218" data-name="Path 13218" d="M257.209,205.485a1.342,1.342,0,0,1-.513-.105l-11.556-4.6a1.4,1.4,0,1,1,1.033-2.613l11.556,4.58a1.423,1.423,0,0,1-.52,2.74Z" transform="translate(-81.799 -104.487)" fill="#fff" opacity="0.5"/>
        <path id="Path_13219" data-name="Path 13219" d="M224.947,219.672a1.475,1.475,0,0,1-.513-.1l-20.984-8.332a1.405,1.405,0,1,1,1.033-2.613l20.984,8.3a1.405,1.405,0,0,1-.52,2.712Z" transform="translate(-73.696 -106.521)" fill="#7717ff"/>
        <path id="Path_13220" data-name="Path 13220" d="M224.947,219.672a1.475,1.475,0,0,1-.513-.1l-20.984-8.332a1.405,1.405,0,1,1,1.033-2.613l20.984,8.3a1.405,1.405,0,0,1-.52,2.712Z" transform="translate(-73.696 -106.521)" opacity="0.3"/>
      </g>
    </g>
  </g>
</svg>
