<svg xmlns="http://www.w3.org/2000/svg" width="118.715" height="121.24" viewBox="0 0 118.715 121.24">
  <g id="love" transform="translate(-0.801)">
    <path id="Path_13182" data-name="Path 13182" d="M97.2,0H23.121A22.32,22.32,0,0,0,.8,22.32V70.9a22.32,22.32,0,0,0,22.32,22.32H33.752a.916.916,0,0,1,.916.916v23.966a3.128,3.128,0,0,0,5.407,2.143L65.22,93.513a.915.915,0,0,1,.667-.288H97.2a22.32,22.32,0,0,0,22.32-22.32V22.32A22.32,22.32,0,0,0,97.2,0Z" transform="translate(0 0)" fill="#ec5569"/>
    <path id="Path_13183" data-name="Path 13183" d="M44.058,83.825a.928.928,0,0,0-.887-.964H32.879c-11.934,0-21.608-10.523-21.608-23.5V8.195a25.469,25.469,0,0,1,.8-6.339A22.312,22.312,0,0,0,.8,21.251V69.835a22.32,22.32,0,0,0,22.32,22.32H33.752a.916.916,0,0,1,.916.916v23.966a3.128,3.128,0,0,0,5.407,2.143l3.983-4.235V83.825Z" transform="translate(0 1.069)" fill="#e63950"/>
    <path id="Path_13184" data-name="Path 13184" d="M74.26,19.931h0a14.511,14.511,0,0,0-20.522,0l-3.2,3.2a1.955,1.955,0,0,1-2.764,0l-3.15-3.15a14.511,14.511,0,0,0-20.522,0h0a14.511,14.511,0,0,0,0,20.522L47.775,64.177a1.955,1.955,0,0,0,2.764,0L74.26,40.452A14.511,14.511,0,0,0,74.26,19.931Z" transform="translate(10.977 9.036)" fill="#ec5569"/>
    <path id="Path_13185" data-name="Path 13185" d="M74.26,19.931h0a14.511,14.511,0,0,0-20.522,0l-3.2,3.2a1.955,1.955,0,0,1-2.764,0l-3.15-3.15a14.511,14.511,0,0,0-20.522,0h0a14.511,14.511,0,0,0,0,20.522L47.775,64.177a1.955,1.955,0,0,0,2.764,0L74.26,40.452A14.511,14.511,0,0,0,74.26,19.931Z" transform="translate(10.977 9.036)" fill="#fff5f5"/>
    <path id="Path_13186" data-name="Path 13186" d="M31.692,40.484a14.511,14.511,0,0,1,0-20.522h0a14.437,14.437,0,0,1,6.465-3.743A14.5,14.5,0,0,0,24.1,19.962h0a14.511,14.511,0,0,0,0,20.522L47.775,64.157a1.955,1.955,0,0,0,2.764,0l2.413-2.413Z" transform="translate(10.978 9.056)" fill="#dce6eb"/>
  </g>
</svg>
