<svg xmlns="http://www.w3.org/2000/svg" xmlns:xlink="http://www.w3.org/1999/xlink" width="136" height="275" viewBox="0 0 136 275">
  <defs>
    <clipPath id="clip-path">
      <rect width="275" height="136" fill="none"/>
    </clipPath>
  </defs>
  <g id="Repeat_Grid_1" data-name="Repeat Grid 1" transform="translate(0 275) rotate(-90)" opacity="0.27" clip-path="url(#clip-path)">
    <g transform="translate(-1583 -8470)">
      <circle id="Ellipse_4" data-name="Ellipse 4" cx="3" cy="3" r="3" transform="translate(1583 8470)" fill="#fe0"/>
      <circle id="Ellipse_4-2" data-name="Ellipse 4" cx="3" cy="3" r="3" transform="translate(1600 8470)" fill="#fe0"/>
      <circle id="Ellipse_4-3" data-name="Ellipse 4" cx="3" cy="3" r="3" transform="translate(1617 8470)" fill="#fe0"/>
      <circle id="Ellipse_4-4" data-name="Ellipse 4" cx="3" cy="3" r="3" transform="translate(1634 8470)" fill="#fe0"/>
      <circle id="Ellipse_4-5" data-name="Ellipse 4" cx="3" cy="3" r="3" transform="translate(1651 8470)" fill="#fe0"/>
      <circle id="Ellipse_4-6" data-name="Ellipse 4" cx="3" cy="3" r="3" transform="translate(1668 8470)" fill="#fe0"/>
      <circle id="Ellipse_4-7" data-name="Ellipse 4" cx="3" cy="3" r="3" transform="translate(1685 8470)" fill="#fe0"/>
      <circle id="Ellipse_4-8" data-name="Ellipse 4" cx="3" cy="3" r="3" transform="translate(1702 8470)" fill="#fe0"/>
      <circle id="Ellipse_4-9" data-name="Ellipse 4" cx="3" cy="3" r="3" transform="translate(1719 8470)" fill="#fe0"/>
      <circle id="Ellipse_4-10" data-name="Ellipse 4" cx="3" cy="3" r="3" transform="translate(1736 8470)" fill="#fe0"/>
      <circle id="Ellipse_4-11" data-name="Ellipse 4" cx="3" cy="3" r="3" transform="translate(1753 8470)" fill="#fe0"/>
      <circle id="Ellipse_4-12" data-name="Ellipse 4" cx="3" cy="3" r="3" transform="translate(1770 8470)" fill="#fe0"/>
      <circle id="Ellipse_4-13" data-name="Ellipse 4" cx="3" cy="3" r="3" transform="translate(1787 8470)" fill="#fe0"/>
      <circle id="Ellipse_4-14" data-name="Ellipse 4" cx="3" cy="3" r="3" transform="translate(1804 8470)" fill="#fe0"/>
      <circle id="Ellipse_4-15" data-name="Ellipse 4" cx="3" cy="3" r="3" transform="translate(1821 8470)" fill="#fe0"/>
      <circle id="Ellipse_4-16" data-name="Ellipse 4" cx="3" cy="3" r="3" transform="translate(1838 8470)" fill="#fe0"/>
      <circle id="Ellipse_4-17" data-name="Ellipse 4" cx="3" cy="3" r="3" transform="translate(1855 8470)" fill="#fe0"/>
      <circle id="Ellipse_4-18" data-name="Ellipse 4" cx="3" cy="3" r="3" transform="translate(1872 8470)" fill="#fe0"/>
      <circle id="Ellipse_4-19" data-name="Ellipse 4" cx="3" cy="3" r="3" transform="translate(1889 8470)" fill="#fe0"/>
      <circle id="Ellipse_4-20" data-name="Ellipse 4" cx="3" cy="3" r="3" transform="translate(1906 8470)" fill="#fe0"/>
      <circle id="Ellipse_4-21" data-name="Ellipse 4" cx="3" cy="3" r="3" transform="translate(1583 8487)" fill="#fe0"/>
      <circle id="Ellipse_4-22" data-name="Ellipse 4" cx="3" cy="3" r="3" transform="translate(1600 8487)" fill="#fe0"/>
      <circle id="Ellipse_4-23" data-name="Ellipse 4" cx="3" cy="3" r="3" transform="translate(1617 8487)" fill="#fe0"/>
      <circle id="Ellipse_4-24" data-name="Ellipse 4" cx="3" cy="3" r="3" transform="translate(1634 8487)" fill="#fe0"/>
      <circle id="Ellipse_4-25" data-name="Ellipse 4" cx="3" cy="3" r="3" transform="translate(1651 8487)" fill="#fe0"/>
      <circle id="Ellipse_4-26" data-name="Ellipse 4" cx="3" cy="3" r="3" transform="translate(1668 8487)" fill="#fe0"/>
      <circle id="Ellipse_4-27" data-name="Ellipse 4" cx="3" cy="3" r="3" transform="translate(1685 8487)" fill="#fe0"/>
      <circle id="Ellipse_4-28" data-name="Ellipse 4" cx="3" cy="3" r="3" transform="translate(1702 8487)" fill="#fe0"/>
      <circle id="Ellipse_4-29" data-name="Ellipse 4" cx="3" cy="3" r="3" transform="translate(1719 8487)" fill="#fe0"/>
      <circle id="Ellipse_4-30" data-name="Ellipse 4" cx="3" cy="3" r="3" transform="translate(1736 8487)" fill="#fe0"/>
      <circle id="Ellipse_4-31" data-name="Ellipse 4" cx="3" cy="3" r="3" transform="translate(1753 8487)" fill="#fe0"/>
      <circle id="Ellipse_4-32" data-name="Ellipse 4" cx="3" cy="3" r="3" transform="translate(1770 8487)" fill="#fe0"/>
      <circle id="Ellipse_4-33" data-name="Ellipse 4" cx="3" cy="3" r="3" transform="translate(1787 8487)" fill="#fe0"/>
      <circle id="Ellipse_4-34" data-name="Ellipse 4" cx="3" cy="3" r="3" transform="translate(1804 8487)" fill="#fe0"/>
      <circle id="Ellipse_4-35" data-name="Ellipse 4" cx="3" cy="3" r="3" transform="translate(1821 8487)" fill="#fe0"/>
      <circle id="Ellipse_4-36" data-name="Ellipse 4" cx="3" cy="3" r="3" transform="translate(1838 8487)" fill="#fe0"/>
      <circle id="Ellipse_4-37" data-name="Ellipse 4" cx="3" cy="3" r="3" transform="translate(1855 8487)" fill="#fe0"/>
      <circle id="Ellipse_4-38" data-name="Ellipse 4" cx="3" cy="3" r="3" transform="translate(1872 8487)" fill="#fe0"/>
      <circle id="Ellipse_4-39" data-name="Ellipse 4" cx="3" cy="3" r="3" transform="translate(1889 8487)" fill="#fe0"/>
      <circle id="Ellipse_4-40" data-name="Ellipse 4" cx="3" cy="3" r="3" transform="translate(1906 8487)" fill="#fe0"/>
      <circle id="Ellipse_4-41" data-name="Ellipse 4" cx="3" cy="3" r="3" transform="translate(1583 8504)" fill="#fe0"/>
      <circle id="Ellipse_4-42" data-name="Ellipse 4" cx="3" cy="3" r="3" transform="translate(1600 8504)" fill="#fe0"/>
      <circle id="Ellipse_4-43" data-name="Ellipse 4" cx="3" cy="3" r="3" transform="translate(1617 8504)" fill="#fe0"/>
      <circle id="Ellipse_4-44" data-name="Ellipse 4" cx="3" cy="3" r="3" transform="translate(1634 8504)" fill="#fe0"/>
      <circle id="Ellipse_4-45" data-name="Ellipse 4" cx="3" cy="3" r="3" transform="translate(1651 8504)" fill="#fe0"/>
      <circle id="Ellipse_4-46" data-name="Ellipse 4" cx="3" cy="3" r="3" transform="translate(1668 8504)" fill="#fe0"/>
      <circle id="Ellipse_4-47" data-name="Ellipse 4" cx="3" cy="3" r="3" transform="translate(1685 8504)" fill="#fe0"/>
      <circle id="Ellipse_4-48" data-name="Ellipse 4" cx="3" cy="3" r="3" transform="translate(1702 8504)" fill="#fe0"/>
      <circle id="Ellipse_4-49" data-name="Ellipse 4" cx="3" cy="3" r="3" transform="translate(1719 8504)" fill="#fe0"/>
      <circle id="Ellipse_4-50" data-name="Ellipse 4" cx="3" cy="3" r="3" transform="translate(1736 8504)" fill="#fe0"/>
      <circle id="Ellipse_4-51" data-name="Ellipse 4" cx="3" cy="3" r="3" transform="translate(1753 8504)" fill="#fe0"/>
      <circle id="Ellipse_4-52" data-name="Ellipse 4" cx="3" cy="3" r="3" transform="translate(1770 8504)" fill="#fe0"/>
      <circle id="Ellipse_4-53" data-name="Ellipse 4" cx="3" cy="3" r="3" transform="translate(1787 8504)" fill="#fe0"/>
      <circle id="Ellipse_4-54" data-name="Ellipse 4" cx="3" cy="3" r="3" transform="translate(1804 8504)" fill="#fe0"/>
      <circle id="Ellipse_4-55" data-name="Ellipse 4" cx="3" cy="3" r="3" transform="translate(1821 8504)" fill="#fe0"/>
      <circle id="Ellipse_4-56" data-name="Ellipse 4" cx="3" cy="3" r="3" transform="translate(1838 8504)" fill="#fe0"/>
      <circle id="Ellipse_4-57" data-name="Ellipse 4" cx="3" cy="3" r="3" transform="translate(1855 8504)" fill="#fe0"/>
      <circle id="Ellipse_4-58" data-name="Ellipse 4" cx="3" cy="3" r="3" transform="translate(1872 8504)" fill="#fe0"/>
      <circle id="Ellipse_4-59" data-name="Ellipse 4" cx="3" cy="3" r="3" transform="translate(1889 8504)" fill="#fe0"/>
      <circle id="Ellipse_4-60" data-name="Ellipse 4" cx="3" cy="3" r="3" transform="translate(1906 8504)" fill="#fe0"/>
      <circle id="Ellipse_4-61" data-name="Ellipse 4" cx="3" cy="3" r="3" transform="translate(1583 8521)" fill="#fe0"/>
      <circle id="Ellipse_4-62" data-name="Ellipse 4" cx="3" cy="3" r="3" transform="translate(1600 8521)" fill="#fe0"/>
      <circle id="Ellipse_4-63" data-name="Ellipse 4" cx="3" cy="3" r="3" transform="translate(1617 8521)" fill="#fe0"/>
      <circle id="Ellipse_4-64" data-name="Ellipse 4" cx="3" cy="3" r="3" transform="translate(1634 8521)" fill="#fe0"/>
      <circle id="Ellipse_4-65" data-name="Ellipse 4" cx="3" cy="3" r="3" transform="translate(1651 8521)" fill="#fe0"/>
      <circle id="Ellipse_4-66" data-name="Ellipse 4" cx="3" cy="3" r="3" transform="translate(1668 8521)" fill="#fe0"/>
      <circle id="Ellipse_4-67" data-name="Ellipse 4" cx="3" cy="3" r="3" transform="translate(1685 8521)" fill="#fe0"/>
      <circle id="Ellipse_4-68" data-name="Ellipse 4" cx="3" cy="3" r="3" transform="translate(1702 8521)" fill="#fe0"/>
      <circle id="Ellipse_4-69" data-name="Ellipse 4" cx="3" cy="3" r="3" transform="translate(1719 8521)" fill="#fe0"/>
      <circle id="Ellipse_4-70" data-name="Ellipse 4" cx="3" cy="3" r="3" transform="translate(1736 8521)" fill="#fe0"/>
      <circle id="Ellipse_4-71" data-name="Ellipse 4" cx="3" cy="3" r="3" transform="translate(1753 8521)" fill="#fe0"/>
      <circle id="Ellipse_4-72" data-name="Ellipse 4" cx="3" cy="3" r="3" transform="translate(1770 8521)" fill="#fe0"/>
      <circle id="Ellipse_4-73" data-name="Ellipse 4" cx="3" cy="3" r="3" transform="translate(1787 8521)" fill="#fe0"/>
      <circle id="Ellipse_4-74" data-name="Ellipse 4" cx="3" cy="3" r="3" transform="translate(1804 8521)" fill="#fe0"/>
      <circle id="Ellipse_4-75" data-name="Ellipse 4" cx="3" cy="3" r="3" transform="translate(1821 8521)" fill="#fe0"/>
      <circle id="Ellipse_4-76" data-name="Ellipse 4" cx="3" cy="3" r="3" transform="translate(1838 8521)" fill="#fe0"/>
      <circle id="Ellipse_4-77" data-name="Ellipse 4" cx="3" cy="3" r="3" transform="translate(1855 8521)" fill="#fe0"/>
      <circle id="Ellipse_4-78" data-name="Ellipse 4" cx="3" cy="3" r="3" transform="translate(1872 8521)" fill="#fe0"/>
      <circle id="Ellipse_4-79" data-name="Ellipse 4" cx="3" cy="3" r="3" transform="translate(1889 8521)" fill="#fe0"/>
      <circle id="Ellipse_4-80" data-name="Ellipse 4" cx="3" cy="3" r="3" transform="translate(1906 8521)" fill="#fe0"/>
    </g>
    <g transform="translate(-1583 -8404)">
      <circle id="Ellipse_4-81" data-name="Ellipse 4" cx="3" cy="3" r="3" transform="translate(1583 8470)" fill="#fe0"/>
      <circle id="Ellipse_4-82" data-name="Ellipse 4" cx="3" cy="3" r="3" transform="translate(1600 8470)" fill="#fe0"/>
      <circle id="Ellipse_4-83" data-name="Ellipse 4" cx="3" cy="3" r="3" transform="translate(1617 8470)" fill="#fe0"/>
      <circle id="Ellipse_4-84" data-name="Ellipse 4" cx="3" cy="3" r="3" transform="translate(1634 8470)" fill="#fe0"/>
      <circle id="Ellipse_4-85" data-name="Ellipse 4" cx="3" cy="3" r="3" transform="translate(1651 8470)" fill="#fe0"/>
      <circle id="Ellipse_4-86" data-name="Ellipse 4" cx="3" cy="3" r="3" transform="translate(1668 8470)" fill="#fe0"/>
      <circle id="Ellipse_4-87" data-name="Ellipse 4" cx="3" cy="3" r="3" transform="translate(1685 8470)" fill="#fe0"/>
      <circle id="Ellipse_4-88" data-name="Ellipse 4" cx="3" cy="3" r="3" transform="translate(1702 8470)" fill="#fe0"/>
      <circle id="Ellipse_4-89" data-name="Ellipse 4" cx="3" cy="3" r="3" transform="translate(1719 8470)" fill="#fe0"/>
      <circle id="Ellipse_4-90" data-name="Ellipse 4" cx="3" cy="3" r="3" transform="translate(1736 8470)" fill="#fe0"/>
      <circle id="Ellipse_4-91" data-name="Ellipse 4" cx="3" cy="3" r="3" transform="translate(1753 8470)" fill="#fe0"/>
      <circle id="Ellipse_4-92" data-name="Ellipse 4" cx="3" cy="3" r="3" transform="translate(1770 8470)" fill="#fe0"/>
      <circle id="Ellipse_4-93" data-name="Ellipse 4" cx="3" cy="3" r="3" transform="translate(1787 8470)" fill="#fe0"/>
      <circle id="Ellipse_4-94" data-name="Ellipse 4" cx="3" cy="3" r="3" transform="translate(1804 8470)" fill="#fe0"/>
      <circle id="Ellipse_4-95" data-name="Ellipse 4" cx="3" cy="3" r="3" transform="translate(1821 8470)" fill="#fe0"/>
      <circle id="Ellipse_4-96" data-name="Ellipse 4" cx="3" cy="3" r="3" transform="translate(1838 8470)" fill="#fe0"/>
      <circle id="Ellipse_4-97" data-name="Ellipse 4" cx="3" cy="3" r="3" transform="translate(1855 8470)" fill="#fe0"/>
      <circle id="Ellipse_4-98" data-name="Ellipse 4" cx="3" cy="3" r="3" transform="translate(1872 8470)" fill="#fe0"/>
      <circle id="Ellipse_4-99" data-name="Ellipse 4" cx="3" cy="3" r="3" transform="translate(1889 8470)" fill="#fe0"/>
      <circle id="Ellipse_4-100" data-name="Ellipse 4" cx="3" cy="3" r="3" transform="translate(1906 8470)" fill="#fe0"/>
      <circle id="Ellipse_4-101" data-name="Ellipse 4" cx="3" cy="3" r="3" transform="translate(1583 8487)" fill="#fe0"/>
      <circle id="Ellipse_4-102" data-name="Ellipse 4" cx="3" cy="3" r="3" transform="translate(1600 8487)" fill="#fe0"/>
      <circle id="Ellipse_4-103" data-name="Ellipse 4" cx="3" cy="3" r="3" transform="translate(1617 8487)" fill="#fe0"/>
      <circle id="Ellipse_4-104" data-name="Ellipse 4" cx="3" cy="3" r="3" transform="translate(1634 8487)" fill="#fe0"/>
      <circle id="Ellipse_4-105" data-name="Ellipse 4" cx="3" cy="3" r="3" transform="translate(1651 8487)" fill="#fe0"/>
      <circle id="Ellipse_4-106" data-name="Ellipse 4" cx="3" cy="3" r="3" transform="translate(1668 8487)" fill="#fe0"/>
      <circle id="Ellipse_4-107" data-name="Ellipse 4" cx="3" cy="3" r="3" transform="translate(1685 8487)" fill="#fe0"/>
      <circle id="Ellipse_4-108" data-name="Ellipse 4" cx="3" cy="3" r="3" transform="translate(1702 8487)" fill="#fe0"/>
      <circle id="Ellipse_4-109" data-name="Ellipse 4" cx="3" cy="3" r="3" transform="translate(1719 8487)" fill="#fe0"/>
      <circle id="Ellipse_4-110" data-name="Ellipse 4" cx="3" cy="3" r="3" transform="translate(1736 8487)" fill="#fe0"/>
      <circle id="Ellipse_4-111" data-name="Ellipse 4" cx="3" cy="3" r="3" transform="translate(1753 8487)" fill="#fe0"/>
      <circle id="Ellipse_4-112" data-name="Ellipse 4" cx="3" cy="3" r="3" transform="translate(1770 8487)" fill="#fe0"/>
      <circle id="Ellipse_4-113" data-name="Ellipse 4" cx="3" cy="3" r="3" transform="translate(1787 8487)" fill="#fe0"/>
      <circle id="Ellipse_4-114" data-name="Ellipse 4" cx="3" cy="3" r="3" transform="translate(1804 8487)" fill="#fe0"/>
      <circle id="Ellipse_4-115" data-name="Ellipse 4" cx="3" cy="3" r="3" transform="translate(1821 8487)" fill="#fe0"/>
      <circle id="Ellipse_4-116" data-name="Ellipse 4" cx="3" cy="3" r="3" transform="translate(1838 8487)" fill="#fe0"/>
      <circle id="Ellipse_4-117" data-name="Ellipse 4" cx="3" cy="3" r="3" transform="translate(1855 8487)" fill="#fe0"/>
      <circle id="Ellipse_4-118" data-name="Ellipse 4" cx="3" cy="3" r="3" transform="translate(1872 8487)" fill="#fe0"/>
      <circle id="Ellipse_4-119" data-name="Ellipse 4" cx="3" cy="3" r="3" transform="translate(1889 8487)" fill="#fe0"/>
      <circle id="Ellipse_4-120" data-name="Ellipse 4" cx="3" cy="3" r="3" transform="translate(1906 8487)" fill="#fe0"/>
      <circle id="Ellipse_4-121" data-name="Ellipse 4" cx="3" cy="3" r="3" transform="translate(1583 8504)" fill="#fe0"/>
      <circle id="Ellipse_4-122" data-name="Ellipse 4" cx="3" cy="3" r="3" transform="translate(1600 8504)" fill="#fe0"/>
      <circle id="Ellipse_4-123" data-name="Ellipse 4" cx="3" cy="3" r="3" transform="translate(1617 8504)" fill="#fe0"/>
      <circle id="Ellipse_4-124" data-name="Ellipse 4" cx="3" cy="3" r="3" transform="translate(1634 8504)" fill="#fe0"/>
      <circle id="Ellipse_4-125" data-name="Ellipse 4" cx="3" cy="3" r="3" transform="translate(1651 8504)" fill="#fe0"/>
      <circle id="Ellipse_4-126" data-name="Ellipse 4" cx="3" cy="3" r="3" transform="translate(1668 8504)" fill="#fe0"/>
      <circle id="Ellipse_4-127" data-name="Ellipse 4" cx="3" cy="3" r="3" transform="translate(1685 8504)" fill="#fe0"/>
      <circle id="Ellipse_4-128" data-name="Ellipse 4" cx="3" cy="3" r="3" transform="translate(1702 8504)" fill="#fe0"/>
      <circle id="Ellipse_4-129" data-name="Ellipse 4" cx="3" cy="3" r="3" transform="translate(1719 8504)" fill="#fe0"/>
      <circle id="Ellipse_4-130" data-name="Ellipse 4" cx="3" cy="3" r="3" transform="translate(1736 8504)" fill="#fe0"/>
      <circle id="Ellipse_4-131" data-name="Ellipse 4" cx="3" cy="3" r="3" transform="translate(1753 8504)" fill="#fe0"/>
      <circle id="Ellipse_4-132" data-name="Ellipse 4" cx="3" cy="3" r="3" transform="translate(1770 8504)" fill="#fe0"/>
      <circle id="Ellipse_4-133" data-name="Ellipse 4" cx="3" cy="3" r="3" transform="translate(1787 8504)" fill="#fe0"/>
      <circle id="Ellipse_4-134" data-name="Ellipse 4" cx="3" cy="3" r="3" transform="translate(1804 8504)" fill="#fe0"/>
      <circle id="Ellipse_4-135" data-name="Ellipse 4" cx="3" cy="3" r="3" transform="translate(1821 8504)" fill="#fe0"/>
      <circle id="Ellipse_4-136" data-name="Ellipse 4" cx="3" cy="3" r="3" transform="translate(1838 8504)" fill="#fe0"/>
      <circle id="Ellipse_4-137" data-name="Ellipse 4" cx="3" cy="3" r="3" transform="translate(1855 8504)" fill="#fe0"/>
      <circle id="Ellipse_4-138" data-name="Ellipse 4" cx="3" cy="3" r="3" transform="translate(1872 8504)" fill="#fe0"/>
      <circle id="Ellipse_4-139" data-name="Ellipse 4" cx="3" cy="3" r="3" transform="translate(1889 8504)" fill="#fe0"/>
      <circle id="Ellipse_4-140" data-name="Ellipse 4" cx="3" cy="3" r="3" transform="translate(1906 8504)" fill="#fe0"/>
      <circle id="Ellipse_4-141" data-name="Ellipse 4" cx="3" cy="3" r="3" transform="translate(1583 8521)" fill="#fe0"/>
      <circle id="Ellipse_4-142" data-name="Ellipse 4" cx="3" cy="3" r="3" transform="translate(1600 8521)" fill="#fe0"/>
      <circle id="Ellipse_4-143" data-name="Ellipse 4" cx="3" cy="3" r="3" transform="translate(1617 8521)" fill="#fe0"/>
      <circle id="Ellipse_4-144" data-name="Ellipse 4" cx="3" cy="3" r="3" transform="translate(1634 8521)" fill="#fe0"/>
      <circle id="Ellipse_4-145" data-name="Ellipse 4" cx="3" cy="3" r="3" transform="translate(1651 8521)" fill="#fe0"/>
      <circle id="Ellipse_4-146" data-name="Ellipse 4" cx="3" cy="3" r="3" transform="translate(1668 8521)" fill="#fe0"/>
      <circle id="Ellipse_4-147" data-name="Ellipse 4" cx="3" cy="3" r="3" transform="translate(1685 8521)" fill="#fe0"/>
      <circle id="Ellipse_4-148" data-name="Ellipse 4" cx="3" cy="3" r="3" transform="translate(1702 8521)" fill="#fe0"/>
      <circle id="Ellipse_4-149" data-name="Ellipse 4" cx="3" cy="3" r="3" transform="translate(1719 8521)" fill="#fe0"/>
      <circle id="Ellipse_4-150" data-name="Ellipse 4" cx="3" cy="3" r="3" transform="translate(1736 8521)" fill="#fe0"/>
      <circle id="Ellipse_4-151" data-name="Ellipse 4" cx="3" cy="3" r="3" transform="translate(1753 8521)" fill="#fe0"/>
      <circle id="Ellipse_4-152" data-name="Ellipse 4" cx="3" cy="3" r="3" transform="translate(1770 8521)" fill="#fe0"/>
      <circle id="Ellipse_4-153" data-name="Ellipse 4" cx="3" cy="3" r="3" transform="translate(1787 8521)" fill="#fe0"/>
      <circle id="Ellipse_4-154" data-name="Ellipse 4" cx="3" cy="3" r="3" transform="translate(1804 8521)" fill="#fe0"/>
      <circle id="Ellipse_4-155" data-name="Ellipse 4" cx="3" cy="3" r="3" transform="translate(1821 8521)" fill="#fe0"/>
      <circle id="Ellipse_4-156" data-name="Ellipse 4" cx="3" cy="3" r="3" transform="translate(1838 8521)" fill="#fe0"/>
      <circle id="Ellipse_4-157" data-name="Ellipse 4" cx="3" cy="3" r="3" transform="translate(1855 8521)" fill="#fe0"/>
      <circle id="Ellipse_4-158" data-name="Ellipse 4" cx="3" cy="3" r="3" transform="translate(1872 8521)" fill="#fe0"/>
      <circle id="Ellipse_4-159" data-name="Ellipse 4" cx="3" cy="3" r="3" transform="translate(1889 8521)" fill="#fe0"/>
      <circle id="Ellipse_4-160" data-name="Ellipse 4" cx="3" cy="3" r="3" transform="translate(1906 8521)" fill="#fe0"/>
    </g>
    <g transform="translate(-1583 -8338)">
      <circle id="Ellipse_4-161" data-name="Ellipse 4" cx="3" cy="3" r="3" transform="translate(1583 8470)" fill="#fe0"/>
      <circle id="Ellipse_4-162" data-name="Ellipse 4" cx="3" cy="3" r="3" transform="translate(1600 8470)" fill="#fe0"/>
      <circle id="Ellipse_4-163" data-name="Ellipse 4" cx="3" cy="3" r="3" transform="translate(1617 8470)" fill="#fe0"/>
      <circle id="Ellipse_4-164" data-name="Ellipse 4" cx="3" cy="3" r="3" transform="translate(1634 8470)" fill="#fe0"/>
      <circle id="Ellipse_4-165" data-name="Ellipse 4" cx="3" cy="3" r="3" transform="translate(1651 8470)" fill="#fe0"/>
      <circle id="Ellipse_4-166" data-name="Ellipse 4" cx="3" cy="3" r="3" transform="translate(1668 8470)" fill="#fe0"/>
      <circle id="Ellipse_4-167" data-name="Ellipse 4" cx="3" cy="3" r="3" transform="translate(1685 8470)" fill="#fe0"/>
      <circle id="Ellipse_4-168" data-name="Ellipse 4" cx="3" cy="3" r="3" transform="translate(1702 8470)" fill="#fe0"/>
      <circle id="Ellipse_4-169" data-name="Ellipse 4" cx="3" cy="3" r="3" transform="translate(1719 8470)" fill="#fe0"/>
      <circle id="Ellipse_4-170" data-name="Ellipse 4" cx="3" cy="3" r="3" transform="translate(1736 8470)" fill="#fe0"/>
      <circle id="Ellipse_4-171" data-name="Ellipse 4" cx="3" cy="3" r="3" transform="translate(1753 8470)" fill="#fe0"/>
      <circle id="Ellipse_4-172" data-name="Ellipse 4" cx="3" cy="3" r="3" transform="translate(1770 8470)" fill="#fe0"/>
      <circle id="Ellipse_4-173" data-name="Ellipse 4" cx="3" cy="3" r="3" transform="translate(1787 8470)" fill="#fe0"/>
      <circle id="Ellipse_4-174" data-name="Ellipse 4" cx="3" cy="3" r="3" transform="translate(1804 8470)" fill="#fe0"/>
      <circle id="Ellipse_4-175" data-name="Ellipse 4" cx="3" cy="3" r="3" transform="translate(1821 8470)" fill="#fe0"/>
      <circle id="Ellipse_4-176" data-name="Ellipse 4" cx="3" cy="3" r="3" transform="translate(1838 8470)" fill="#fe0"/>
      <circle id="Ellipse_4-177" data-name="Ellipse 4" cx="3" cy="3" r="3" transform="translate(1855 8470)" fill="#fe0"/>
      <circle id="Ellipse_4-178" data-name="Ellipse 4" cx="3" cy="3" r="3" transform="translate(1872 8470)" fill="#fe0"/>
      <circle id="Ellipse_4-179" data-name="Ellipse 4" cx="3" cy="3" r="3" transform="translate(1889 8470)" fill="#fe0"/>
      <circle id="Ellipse_4-180" data-name="Ellipse 4" cx="3" cy="3" r="3" transform="translate(1906 8470)" fill="#fe0"/>
      <circle id="Ellipse_4-181" data-name="Ellipse 4" cx="3" cy="3" r="3" transform="translate(1583 8487)" fill="#fe0"/>
      <circle id="Ellipse_4-182" data-name="Ellipse 4" cx="3" cy="3" r="3" transform="translate(1600 8487)" fill="#fe0"/>
      <circle id="Ellipse_4-183" data-name="Ellipse 4" cx="3" cy="3" r="3" transform="translate(1617 8487)" fill="#fe0"/>
      <circle id="Ellipse_4-184" data-name="Ellipse 4" cx="3" cy="3" r="3" transform="translate(1634 8487)" fill="#fe0"/>
      <circle id="Ellipse_4-185" data-name="Ellipse 4" cx="3" cy="3" r="3" transform="translate(1651 8487)" fill="#fe0"/>
      <circle id="Ellipse_4-186" data-name="Ellipse 4" cx="3" cy="3" r="3" transform="translate(1668 8487)" fill="#fe0"/>
      <circle id="Ellipse_4-187" data-name="Ellipse 4" cx="3" cy="3" r="3" transform="translate(1685 8487)" fill="#fe0"/>
      <circle id="Ellipse_4-188" data-name="Ellipse 4" cx="3" cy="3" r="3" transform="translate(1702 8487)" fill="#fe0"/>
      <circle id="Ellipse_4-189" data-name="Ellipse 4" cx="3" cy="3" r="3" transform="translate(1719 8487)" fill="#fe0"/>
      <circle id="Ellipse_4-190" data-name="Ellipse 4" cx="3" cy="3" r="3" transform="translate(1736 8487)" fill="#fe0"/>
      <circle id="Ellipse_4-191" data-name="Ellipse 4" cx="3" cy="3" r="3" transform="translate(1753 8487)" fill="#fe0"/>
      <circle id="Ellipse_4-192" data-name="Ellipse 4" cx="3" cy="3" r="3" transform="translate(1770 8487)" fill="#fe0"/>
      <circle id="Ellipse_4-193" data-name="Ellipse 4" cx="3" cy="3" r="3" transform="translate(1787 8487)" fill="#fe0"/>
      <circle id="Ellipse_4-194" data-name="Ellipse 4" cx="3" cy="3" r="3" transform="translate(1804 8487)" fill="#fe0"/>
      <circle id="Ellipse_4-195" data-name="Ellipse 4" cx="3" cy="3" r="3" transform="translate(1821 8487)" fill="#fe0"/>
      <circle id="Ellipse_4-196" data-name="Ellipse 4" cx="3" cy="3" r="3" transform="translate(1838 8487)" fill="#fe0"/>
      <circle id="Ellipse_4-197" data-name="Ellipse 4" cx="3" cy="3" r="3" transform="translate(1855 8487)" fill="#fe0"/>
      <circle id="Ellipse_4-198" data-name="Ellipse 4" cx="3" cy="3" r="3" transform="translate(1872 8487)" fill="#fe0"/>
      <circle id="Ellipse_4-199" data-name="Ellipse 4" cx="3" cy="3" r="3" transform="translate(1889 8487)" fill="#fe0"/>
      <circle id="Ellipse_4-200" data-name="Ellipse 4" cx="3" cy="3" r="3" transform="translate(1906 8487)" fill="#fe0"/>
      <circle id="Ellipse_4-201" data-name="Ellipse 4" cx="3" cy="3" r="3" transform="translate(1583 8504)" fill="#fe0"/>
      <circle id="Ellipse_4-202" data-name="Ellipse 4" cx="3" cy="3" r="3" transform="translate(1600 8504)" fill="#fe0"/>
      <circle id="Ellipse_4-203" data-name="Ellipse 4" cx="3" cy="3" r="3" transform="translate(1617 8504)" fill="#fe0"/>
      <circle id="Ellipse_4-204" data-name="Ellipse 4" cx="3" cy="3" r="3" transform="translate(1634 8504)" fill="#fe0"/>
      <circle id="Ellipse_4-205" data-name="Ellipse 4" cx="3" cy="3" r="3" transform="translate(1651 8504)" fill="#fe0"/>
      <circle id="Ellipse_4-206" data-name="Ellipse 4" cx="3" cy="3" r="3" transform="translate(1668 8504)" fill="#fe0"/>
      <circle id="Ellipse_4-207" data-name="Ellipse 4" cx="3" cy="3" r="3" transform="translate(1685 8504)" fill="#fe0"/>
      <circle id="Ellipse_4-208" data-name="Ellipse 4" cx="3" cy="3" r="3" transform="translate(1702 8504)" fill="#fe0"/>
      <circle id="Ellipse_4-209" data-name="Ellipse 4" cx="3" cy="3" r="3" transform="translate(1719 8504)" fill="#fe0"/>
      <circle id="Ellipse_4-210" data-name="Ellipse 4" cx="3" cy="3" r="3" transform="translate(1736 8504)" fill="#fe0"/>
      <circle id="Ellipse_4-211" data-name="Ellipse 4" cx="3" cy="3" r="3" transform="translate(1753 8504)" fill="#fe0"/>
      <circle id="Ellipse_4-212" data-name="Ellipse 4" cx="3" cy="3" r="3" transform="translate(1770 8504)" fill="#fe0"/>
      <circle id="Ellipse_4-213" data-name="Ellipse 4" cx="3" cy="3" r="3" transform="translate(1787 8504)" fill="#fe0"/>
      <circle id="Ellipse_4-214" data-name="Ellipse 4" cx="3" cy="3" r="3" transform="translate(1804 8504)" fill="#fe0"/>
      <circle id="Ellipse_4-215" data-name="Ellipse 4" cx="3" cy="3" r="3" transform="translate(1821 8504)" fill="#fe0"/>
      <circle id="Ellipse_4-216" data-name="Ellipse 4" cx="3" cy="3" r="3" transform="translate(1838 8504)" fill="#fe0"/>
      <circle id="Ellipse_4-217" data-name="Ellipse 4" cx="3" cy="3" r="3" transform="translate(1855 8504)" fill="#fe0"/>
      <circle id="Ellipse_4-218" data-name="Ellipse 4" cx="3" cy="3" r="3" transform="translate(1872 8504)" fill="#fe0"/>
      <circle id="Ellipse_4-219" data-name="Ellipse 4" cx="3" cy="3" r="3" transform="translate(1889 8504)" fill="#fe0"/>
      <circle id="Ellipse_4-220" data-name="Ellipse 4" cx="3" cy="3" r="3" transform="translate(1906 8504)" fill="#fe0"/>
      <circle id="Ellipse_4-221" data-name="Ellipse 4" cx="3" cy="3" r="3" transform="translate(1583 8521)" fill="#fe0"/>
      <circle id="Ellipse_4-222" data-name="Ellipse 4" cx="3" cy="3" r="3" transform="translate(1600 8521)" fill="#fe0"/>
      <circle id="Ellipse_4-223" data-name="Ellipse 4" cx="3" cy="3" r="3" transform="translate(1617 8521)" fill="#fe0"/>
      <circle id="Ellipse_4-224" data-name="Ellipse 4" cx="3" cy="3" r="3" transform="translate(1634 8521)" fill="#fe0"/>
      <circle id="Ellipse_4-225" data-name="Ellipse 4" cx="3" cy="3" r="3" transform="translate(1651 8521)" fill="#fe0"/>
      <circle id="Ellipse_4-226" data-name="Ellipse 4" cx="3" cy="3" r="3" transform="translate(1668 8521)" fill="#fe0"/>
      <circle id="Ellipse_4-227" data-name="Ellipse 4" cx="3" cy="3" r="3" transform="translate(1685 8521)" fill="#fe0"/>
      <circle id="Ellipse_4-228" data-name="Ellipse 4" cx="3" cy="3" r="3" transform="translate(1702 8521)" fill="#fe0"/>
      <circle id="Ellipse_4-229" data-name="Ellipse 4" cx="3" cy="3" r="3" transform="translate(1719 8521)" fill="#fe0"/>
      <circle id="Ellipse_4-230" data-name="Ellipse 4" cx="3" cy="3" r="3" transform="translate(1736 8521)" fill="#fe0"/>
      <circle id="Ellipse_4-231" data-name="Ellipse 4" cx="3" cy="3" r="3" transform="translate(1753 8521)" fill="#fe0"/>
      <circle id="Ellipse_4-232" data-name="Ellipse 4" cx="3" cy="3" r="3" transform="translate(1770 8521)" fill="#fe0"/>
      <circle id="Ellipse_4-233" data-name="Ellipse 4" cx="3" cy="3" r="3" transform="translate(1787 8521)" fill="#fe0"/>
      <circle id="Ellipse_4-234" data-name="Ellipse 4" cx="3" cy="3" r="3" transform="translate(1804 8521)" fill="#fe0"/>
      <circle id="Ellipse_4-235" data-name="Ellipse 4" cx="3" cy="3" r="3" transform="translate(1821 8521)" fill="#fe0"/>
      <circle id="Ellipse_4-236" data-name="Ellipse 4" cx="3" cy="3" r="3" transform="translate(1838 8521)" fill="#fe0"/>
      <circle id="Ellipse_4-237" data-name="Ellipse 4" cx="3" cy="3" r="3" transform="translate(1855 8521)" fill="#fe0"/>
      <circle id="Ellipse_4-238" data-name="Ellipse 4" cx="3" cy="3" r="3" transform="translate(1872 8521)" fill="#fe0"/>
      <circle id="Ellipse_4-239" data-name="Ellipse 4" cx="3" cy="3" r="3" transform="translate(1889 8521)" fill="#fe0"/>
      <circle id="Ellipse_4-240" data-name="Ellipse 4" cx="3" cy="3" r="3" transform="translate(1906 8521)" fill="#fe0"/>
    </g>
  </g>
</svg>
